<svg width="128" height="128" viewBox="0 0 128 128" fill="none" xmlns="http://www.w3.org/2000/svg">
<g clip-path="url(#clip0_1_13)">
<rect width="128" height="128" fill="white"/>
<rect width="128" height="128" rx="17" fill="#101010"/>
<g clip-path="url(#clip1_1_13)">
<path d="M63.9939 44.7837C40.8265 26.824 37.6684 65.1347 22.829 43.5636C22.829 43.5636 28.4014 64.061 44.1187 63.0849C60.8602 62.0723 63.9939 53.4585 63.9939 53.4585C63.9939 53.4585 67.1276 62.0723 83.8691 63.0849C99.5986 64.0488 105.171 43.5636 105.171 43.5636C90.3316 65.1347 87.2101 26.824 63.9939 44.7837Z" stroke="white" stroke-width="3" stroke-linecap="round" stroke-linejoin="round"/>
<path d="M86.9785 63.0239V74.8588C86.9801 76.6072 86.6371 78.3389 85.9691 79.9546C85.3011 81.5703 84.3213 83.0383 83.0857 84.2747C81.8501 85.5111 80.3829 86.4915 78.7682 87.1599C77.1535 87.8283 75.4229 88.1715 73.6755 88.1699H54.3124C52.566 88.1699 50.8367 87.8255 49.2234 87.1564C47.6101 86.4873 46.1443 85.5066 44.91 84.2704C43.6757 83.0342 42.697 81.5667 42.0298 79.9518C41.3625 78.3369 41.02 76.6062 41.0216 74.8588V63.0239" stroke="white" stroke-width="3" stroke-linecap="round" stroke-linejoin="round"/>
<path d="M51.642 87.9015V78.58" stroke="white" stroke-width="3" stroke-linecap="round" stroke-linejoin="round"/>
<path d="M63.9939 88.1699V78.58" stroke="white" stroke-width="3" stroke-linecap="round" stroke-linejoin="round"/>
<path d="M76.3458 87.9015V78.58" stroke="white" stroke-width="3" stroke-linecap="round" stroke-linejoin="round"/>
<path d="M59.4823 67.5993H68.5177" stroke="white" stroke-width="3" stroke-linecap="round" stroke-linejoin="round"/>
</g>
</g>
<defs>
<clipPath id="clip0_1_13">
<rect width="128" height="128" fill="white"/>
</clipPath>
<clipPath id="clip1_1_13">
<rect width="86" height="52" fill="white" transform="translate(21 38)"/>
</clipPath>
</defs>
</svg>
